<svg xmlns="http://www.w3.org/2000/svg" xmlns:xlink="http://www.w3.org/1999/xlink" viewBox="0 0 355.01 321.61">
  <defs>
    <style>
      .cls-1 {
        font-size: 50px;
        font-family: Barlow-ExtraBold, Barlow ExtraBold;
        font-weight: 800;
      }

      .cls-1, .cls-10 {
        fill: none;
      }

      .cls-2 {
        fill: url(#linear-gradient);
      }

      .cls-3 {
        fill: #e5f5fa;
      }

      .cls-10, .cls-3 {
        stroke: #fff;
        stroke-miterlimit: 10;
      }

      .cls-4 {
        fill: #306470;
      }

      .cls-5 {
        fill: #00bfe6;
      }

      .cls-6 {
        fill: #66b78b;
      }

      .cls-7 {
        fill: #fff;
      }

      .cls-8 {
        clip-path: url(#clip-path);
      }

      .cls-9 {
        fill: url(#linear-gradient-2);
      }

      .cls-10 {
        stroke-width: 2px;
      }
    </style>
    <linearGradient id="linear-gradient" x1="309.03" y1="267.07" x2="37" y2="110.02" gradientUnits="userSpaceOnUse">
      <stop offset="0" stop-color="#00bfe5"/>
      <stop offset="0.32" stop-color="#31c2c7"/>
      <stop offset="0.62" stop-color="#57c5b0"/>
      <stop offset="0.85" stop-color="#6ec6a2"/>
      <stop offset="1" stop-color="#76c79d"/>
    </linearGradient>
    <clipPath id="clip-path">
      <text class="cls-1" transform="translate(121.2 45.76)">BI2FI</text>
    </clipPath>
    <linearGradient id="linear-gradient-2" x1="230.06" y1="55.44" x2="125.91" y2="-4.69" xlink:href="#linear-gradient"/>
  </defs>
  <title>BI2FI Logo</title>
  <g id="Layer_2" data-name="Layer 2">
    <g id="Layer_1-2" data-name="Layer 1">
      <g>
        <path class="cls-2" d="M350.23,170a4.39,4.39,0,0,0-4,2.49l-4,8.32a4.38,4.38,0,0,1-5.24,2.3l-40.8-12.46a4.39,4.39,0,0,0-3.89.66l-51.42,37.86-12.49-12.49L212.82,181l15.82-9.13a8.51,8.51,0,0,0,4.25-7.36V110.4a8.5,8.5,0,0,0-2.5-6,5.65,5.65,0,0,0,4.69-3.85l1-3a5.69,5.69,0,0,0-2.57-6.69L229,88.19a5.66,5.66,0,0,0-7.06,1.15l-2.13,2.4a5.67,5.67,0,0,0-1.14,5.52L181.76,76a8.51,8.51,0,0,0-8.51,0L136.32,97.3a5.67,5.67,0,0,0-1.13-5.56l-2.13-2.4A5.66,5.66,0,0,0,126,88.19l-4.55,2.61a5.69,5.69,0,0,0-2.57,6.69l1,3a5.66,5.66,0,0,0,4.73,3.86,8.51,8.51,0,0,0-2.49,6v54.14a8.51,8.51,0,0,0,4.25,7.36L142.19,181l-7.49,7.49-20.22,20.22L63,170.86a4.39,4.39,0,0,0-3.89-.66l-40.8,12.47a4.4,4.4,0,0,1-5.24-2.3l-4-8.33a4.39,4.39,0,0,0-8.2,3l6.14,23.2a4.39,4.39,0,0,0,4.24,3.26H49a4.4,4.4,0,0,1,3.1,1.29L167.48,317.46a14.19,14.19,0,0,0,20.05,0L303.34,203.23a4.39,4.39,0,0,1,3.1-1.28h37.65a4.39,4.39,0,0,0,4.24-3.27l6.14-23.2A4.39,4.39,0,0,0,350.23,170Z"/>
        <g>
          <path class="cls-3" d="M217.43,111.12,194.59,97.93a5.66,5.66,0,0,0-6.85.9l-6.22,6.23a5.68,5.68,0,0,1-8,0l-6.23-6.23a5.65,5.65,0,0,0-6.84-.9l-22.88,13.2a5.67,5.67,0,0,0-2.83,4.91v5.57a5.7,5.7,0,0,0,1.66,4l7.84,7.84a5.66,5.66,0,0,1,0,8l-7.84,7.84a5.69,5.69,0,0,0-1.66,4v5.57a5.68,5.68,0,0,0,2.83,4.91l31.84,18.38a16.23,16.23,0,0,0,16.23,0l31.81-18.37a5.68,5.68,0,0,0,2.84-4.95l0-5.56a5.68,5.68,0,0,0-1.66-4l-7.86-7.86a5.66,5.66,0,0,1,0-8l7.86-7.86a5.68,5.68,0,0,0,1.66-4l0-5.56A5.68,5.68,0,0,0,217.43,111.12Z"/>
          <g>
            <path class="cls-4" d="M199.55,114c-3.91,0-7.09.71-7.09,1.57h14.18C206.64,114.67,203.47,114,199.55,114Z"/>
            <path class="cls-4" d="M155.1,114c-3.91,0-7.08.71-7.08,1.57h14.17C162.19,114.67,159,114,155.1,114Z"/>
          </g>
          <path class="cls-4" d="M177.51,167.45c-5.48,0-9.92-1-9.92-2.2h19.84C187.43,166.46,183,167.45,177.51,167.45Z"/>
          <g>
            <path class="cls-4" d="M182.56,139.3a2.08,2.08,0,0,0,.32-2.89l-3.2,3.2A2.07,2.07,0,0,0,182.56,139.3Z"/>
            <path class="cls-4" d="M172.45,139.3a2.09,2.09,0,0,1-.31-2.89l3.19,3.2A2.07,2.07,0,0,1,172.45,139.3Z"/>
          </g>
        </g>
        <path class="cls-5" d="M340.89,76.41V97.48l-12.34,6.32-12.34-6.32V76.41a22.18,22.18,0,0,0,4.05,39v49.74a8.3,8.3,0,1,0,16.59,0V115.41a22.18,22.18,0,0,0,4-39Zm-12.34,92.27a3.63,3.63,0,1,1,3.63-3.63A3.63,3.63,0,0,1,328.55,168.68Z"/>
        <g>
          <g>
            <rect class="cls-6" x="27.87" y="74.79" width="4.42" height="49.28"/>
            <polygon class="cls-6" points="31.98 58.37 28.19 58.37 24.38 69.89 27.23 75.75 32.93 75.75 35.78 69.89 31.98 58.37"/>
          </g>
          <path class="cls-6" d="M36.18,125.29v-2.22H24v2.22a4.24,4.24,0,0,0-2.86,4v37.93a4.26,4.26,0,0,0,4.24,4.24H34.8A4.26,4.26,0,0,0,39,167.21V129.28A4.24,4.24,0,0,0,36.18,125.29Z"/>
          <g>
            <rect class="cls-7" x="34.32" y="130.48" width="2.47" height="32.03" rx="1.24"/>
            <rect class="cls-7" x="23.37" y="130.48" width="2.47" height="32.03" rx="1.24"/>
            <rect class="cls-7" x="28.84" y="130.48" width="2.47" height="32.03" rx="1.24"/>
          </g>
        </g>
        <g class="cls-8">
          <rect class="cls-9" x="123.2" width="109.57" height="50.76"/>
        </g>
        <g>
          <path class="cls-10" d="M114.48,208.74,63.27,171a4.39,4.39,0,0,0-3.89-.66l-40.8,12.46a4.38,4.38,0,0,1-5.24-2.29l-4-8.33a4.39,4.39,0,0,0-4-2.49h0a4.39,4.39,0,0,0-4.24,5.51l6.14,23.2a4.39,4.39,0,0,0,4.24,3.27H49.18a4.39,4.39,0,0,1,3.1,1.28L123,273.68a4.39,4.39,0,0,0,6.59-.44L153,242.62"/>
          <path class="cls-10" d="M240.37,208.82,291.75,171a4.37,4.37,0,0,1,3.88-.66l40.81,12.46a4.37,4.37,0,0,0,5.23-2.29l4-8.33a4.39,4.39,0,0,1,3.95-2.49h0a4.4,4.4,0,0,1,4.25,5.51l-6.14,23.2a4.4,4.4,0,0,1-4.25,3.27H305.83a4.39,4.39,0,0,0-3.1,1.28L232,273.68a4.39,4.39,0,0,1-6.59-.44L202,242.62"/>
        </g>
      </g>
    </g>
  </g>
</svg>
